<svg width="46" height="42" viewBox="0 0 46 42" fill="none" xmlns="http://www.w3.org/2000/svg">
<path d="M7.66665 35C6.61248 35 5.71005 34.6573 4.95935 33.9719C4.20866 33.2865 3.83331 32.4625 3.83331 31.5V10.5C3.83331 9.5375 4.20866 8.71354 4.95935 8.02813C5.71005 7.34271 6.61248 7 7.66665 7H38.3333C39.3875 7 40.2899 7.34271 41.0406 8.02813C41.7913 8.71354 42.1666 9.5375 42.1666 10.5V31.5C42.1666 32.4625 41.7913 33.2865 41.0406 33.9719C40.2899 34.6573 39.3875 35 38.3333 35H7.66665ZM23 22.75L7.66665 14V31.5H38.3333V14L23 22.75ZM23 19.25L38.3333 10.5H7.66665L23 19.25ZM7.66665 14V10.5V31.5V14Z" fill="black" stroke="black"/>
</svg>
